<?xml version="1.0" encoding="UTF-8"?>
<svg xmlns="http://www.w3.org/2000/svg" xmlns:xlink="http://www.w3.org/1999/xlink" viewBox="0 0 248.16 271.92">
  <defs>
    <style>
      .cls-1 {
        fill: url(#linear-gradient-5);
        filter: url(#drop-shadow-5);
      }

      .cls-1, .cls-2, .cls-3, .cls-4, .cls-5, .cls-6, .cls-7, .cls-8, .cls-9, .cls-10, .cls-11, .cls-12, .cls-13, .cls-14 {
        stroke: #231f20;
        stroke-miterlimit: 10;
      }

      .cls-2 {
        filter: url(#drop-shadow-11);
      }

      .cls-2, .cls-6, .cls-7, .cls-8, .cls-10, .cls-12, .cls-14 {
        fill: #f1f2f2;
      }

      .cls-3 {
        fill: url(#linear-gradient-4);
        filter: url(#drop-shadow-4);
      }

      .cls-15 {
        mix-blend-mode: soft-light;
        opacity: .65;
      }

      .cls-4 {
        fill: url(#linear-gradient-7);
        filter: url(#drop-shadow-7);
      }

      .cls-16 {
        isolation: isolate;
      }

      .cls-5 {
        fill: url(#linear-gradient-3);
        filter: url(#drop-shadow-3);
      }

      .cls-6 {
        filter: url(#drop-shadow-12);
      }

      .cls-7 {
        filter: url(#drop-shadow-8);
      }

      .cls-8 {
        filter: url(#drop-shadow-14);
      }

      .cls-9 {
        fill: url(#linear-gradient);
        filter: url(#drop-shadow-1);
      }

      .cls-10 {
        filter: url(#drop-shadow-10);
      }

      .cls-11 {
        fill: url(#linear-gradient-6);
        filter: url(#drop-shadow-6);
      }

      .cls-12 {
        filter: url(#drop-shadow-13);
      }

      .cls-13 {
        fill: url(#linear-gradient-2);
        filter: url(#drop-shadow-2);
      }

      .cls-14 {
        filter: url(#drop-shadow-9);
      }
    </style>
    <linearGradient id="linear-gradient" x1="30.36" y1="106.28" x2="120.89" y2="106.28" gradientTransform="translate(25.68 -22.13) rotate(11)" gradientUnits="userSpaceOnUse">
      <stop offset="0" stop-color="#333133"/>
      <stop offset="0" stop-color="#353335"/>
      <stop offset="0" stop-color="#3c3a3c"/>
      <stop offset="0" stop-color="#494749"/>
      <stop offset="0" stop-color="#5b595b"/>
      <stop offset="0" stop-color="#737173"/>
      <stop offset="0" stop-color="#908f90"/>
      <stop offset="0" stop-color="#b2b2b2"/>
      <stop offset="0" stop-color="#d9d9d9"/>
      <stop offset="0" stop-color="#fff"/>
      <stop offset=".04" stop-color="#e8e8e8"/>
      <stop offset=".12" stop-color="#bbbabb"/>
      <stop offset=".22" stop-color="#939292"/>
      <stop offset=".31" stop-color="#727070"/>
      <stop offset=".42" stop-color="#565455"/>
      <stop offset=".53" stop-color="#413e3f"/>
      <stop offset=".65" stop-color="#322f30"/>
      <stop offset=".79" stop-color="#292627"/>
      <stop offset="1" stop-color="#272425"/>
      <stop offset="1" stop-color="#242021"/>
      <stop offset="1" stop-color="#231f20"/>
    </linearGradient>
    <filter id="drop-shadow-1" x="20.88" y="19.92" width="141.12" height="170.88" filterUnits="userSpaceOnUse">
      <feOffset dx="7" dy="7"/>
      <feGaussianBlur result="blur" stdDeviation="5"/>
      <feFlood flood-color="#231f20" flood-opacity=".75"/>
      <feComposite in2="blur" operator="in"/>
      <feComposite in="SourceGraphic"/>
    </filter>
    <linearGradient id="linear-gradient-2" x1="56.39" y1="179.54" x2="162.91" y2="179.54" xlink:href="#linear-gradient"/>
    <filter id="drop-shadow-2" x="35.52" y="127.2" width="131.28" height="120" filterUnits="userSpaceOnUse">
      <feOffset dx="7" dy="7"/>
      <feGaussianBlur result="blur-2" stdDeviation="5"/>
      <feFlood flood-color="#231f20" flood-opacity=".75"/>
      <feComposite in2="blur-2" operator="in"/>
      <feComposite in="SourceGraphic"/>
    </filter>
    <linearGradient id="linear-gradient-3" x1="164.42" y1="123.62" x2="229.09" y2="123.62" gradientTransform="translate(25.68 -22.13) rotate(11)" gradientUnits="userSpaceOnUse">
      <stop offset="0" stop-color="#333133"/>
      <stop offset=".31" stop-color="#353335"/>
      <stop offset=".46" stop-color="#3c3a3c"/>
      <stop offset=".57" stop-color="#494749"/>
      <stop offset=".66" stop-color="#5b595b"/>
      <stop offset=".74" stop-color="#737173"/>
      <stop offset=".82" stop-color="#908f90"/>
      <stop offset=".89" stop-color="#b2b2b2"/>
      <stop offset=".95" stop-color="#d9d9d9"/>
      <stop offset="1" stop-color="#fff"/>
    </linearGradient>
    <filter id="drop-shadow-3" x="147.6" y="33.36" width="100.56" height="209.76" filterUnits="userSpaceOnUse">
      <feOffset dx="7" dy="7"/>
      <feGaussianBlur result="blur-3" stdDeviation="5"/>
      <feFlood flood-color="#231f20" flood-opacity=".75"/>
      <feComposite in2="blur-3" operator="in"/>
      <feComposite in="SourceGraphic"/>
    </filter>
    <linearGradient id="linear-gradient-4" x1="120.89" y1="18.81" x2="161.7" y2="18.81" xlink:href="#linear-gradient"/>
    <filter id="drop-shadow-4" x="129.6" y="0" width="70.8" height="65.52" filterUnits="userSpaceOnUse">
      <feOffset dx="7" dy="7"/>
      <feGaussianBlur result="blur-4" stdDeviation="5"/>
      <feFlood flood-color="#231f20" flood-opacity=".75"/>
      <feComposite in2="blur-4" operator="in"/>
      <feComposite in="SourceGraphic"/>
    </filter>
    <linearGradient id="linear-gradient-5" x1="29.13" y1="211.58" x2="56.39" y2="211.58" gradientTransform="translate(25.68 -22.13) rotate(11)" gradientUnits="userSpaceOnUse">
      <stop offset="0" stop-color="#333133"/>
      <stop offset=".07" stop-color="#353335"/>
      <stop offset=".1" stop-color="#3c3a3c"/>
      <stop offset=".13" stop-color="#494749"/>
      <stop offset=".15" stop-color="#5b595b"/>
      <stop offset=".17" stop-color="#737173"/>
      <stop offset=".19" stop-color="#908f90"/>
      <stop offset=".2" stop-color="#b2b2b2"/>
      <stop offset=".22" stop-color="#d9d9d9"/>
      <stop offset=".23" stop-color="#fff"/>
      <stop offset=".28" stop-color="#eee"/>
      <stop offset=".78" stop-color="#605e5e"/>
      <stop offset="1" stop-color="#272425"/>
      <stop offset="1" stop-color="#242021"/>
      <stop offset="1" stop-color="#231f20"/>
    </linearGradient>
    <filter id="drop-shadow-5" x="0" y="158.4" width="66.96" height="82.56" filterUnits="userSpaceOnUse">
      <feOffset dx="7" dy="7"/>
      <feGaussianBlur result="blur-5" stdDeviation="5"/>
      <feFlood flood-color="#231f20" flood-opacity=".75"/>
      <feComposite in2="blur-5" operator="in"/>
      <feComposite in="SourceGraphic"/>
    </filter>
    <linearGradient id="linear-gradient-6" x1="162.91" y1="227.08" x2="174.71" y2="227.08" gradientTransform="translate(25.68 -22.13) rotate(11)" gradientUnits="userSpaceOnUse">
      <stop offset="0" stop-color="#333133"/>
      <stop offset=".24" stop-color="#353335"/>
      <stop offset=".39" stop-color="#3d3b3d"/>
      <stop offset=".51" stop-color="#4b4a4b"/>
      <stop offset=".62" stop-color="#605e60"/>
      <stop offset=".71" stop-color="#7a787a"/>
      <stop offset=".8" stop-color="#999"/>
      <stop offset=".89" stop-color="#bfbfbf"/>
      <stop offset=".97" stop-color="#eaeaea"/>
      <stop offset="1" stop-color="#fff"/>
    </linearGradient>
    <filter id="drop-shadow-6" x="135.12" y="211.44" width="44.16" height="60.48" filterUnits="userSpaceOnUse">
      <feOffset dx="7" dy="7"/>
      <feGaussianBlur result="blur-6" stdDeviation="5"/>
      <feFlood flood-color="#231f20" flood-opacity=".75"/>
      <feComposite in2="blur-6" operator="in"/>
      <feComposite in="SourceGraphic"/>
    </filter>
    <linearGradient id="linear-gradient-7" x1="106.6" y1="91.81" x2="142.81" y2="91.81" xlink:href="#linear-gradient"/>
    <filter id="drop-shadow-7" x="97.2" y="56.4" width="78.48" height="88.8" filterUnits="userSpaceOnUse">
      <feOffset dx="7" dy="7"/>
      <feGaussianBlur result="blur-7" stdDeviation="5"/>
      <feFlood flood-color="#231f20" flood-opacity=".75"/>
      <feComposite in2="blur-7" operator="in"/>
      <feComposite in="SourceGraphic"/>
    </filter>
    <filter id="drop-shadow-8" x="20.88" y="19.92" width="141.12" height="170.88" filterUnits="userSpaceOnUse">
      <feOffset dx="7" dy="7"/>
      <feGaussianBlur result="blur-8" stdDeviation="5"/>
      <feFlood flood-color="#231f20" flood-opacity=".75"/>
      <feComposite in2="blur-8" operator="in"/>
      <feComposite in="SourceGraphic"/>
    </filter>
    <filter id="drop-shadow-9" x="35.52" y="127.2" width="131.28" height="120" filterUnits="userSpaceOnUse">
      <feOffset dx="7" dy="7"/>
      <feGaussianBlur result="blur-9" stdDeviation="5"/>
      <feFlood flood-color="#231f20" flood-opacity=".75"/>
      <feComposite in2="blur-9" operator="in"/>
      <feComposite in="SourceGraphic"/>
    </filter>
    <filter id="drop-shadow-10" x="147.6" y="33.36" width="100.56" height="209.76" filterUnits="userSpaceOnUse">
      <feOffset dx="7" dy="7"/>
      <feGaussianBlur result="blur-10" stdDeviation="5"/>
      <feFlood flood-color="#231f20" flood-opacity=".75"/>
      <feComposite in2="blur-10" operator="in"/>
      <feComposite in="SourceGraphic"/>
    </filter>
    <filter id="drop-shadow-11" x="129.6" y="0" width="70.8" height="65.52" filterUnits="userSpaceOnUse">
      <feOffset dx="7" dy="7"/>
      <feGaussianBlur result="blur-11" stdDeviation="5"/>
      <feFlood flood-color="#231f20" flood-opacity=".75"/>
      <feComposite in2="blur-11" operator="in"/>
      <feComposite in="SourceGraphic"/>
    </filter>
    <filter id="drop-shadow-12" x="0" y="158.4" width="66.96" height="82.56" filterUnits="userSpaceOnUse">
      <feOffset dx="7" dy="7"/>
      <feGaussianBlur result="blur-12" stdDeviation="5"/>
      <feFlood flood-color="#231f20" flood-opacity=".75"/>
      <feComposite in2="blur-12" operator="in"/>
      <feComposite in="SourceGraphic"/>
    </filter>
    <filter id="drop-shadow-13" x="135.12" y="211.44" width="44.16" height="60.48" filterUnits="userSpaceOnUse">
      <feOffset dx="7" dy="7"/>
      <feGaussianBlur result="blur-13" stdDeviation="5"/>
      <feFlood flood-color="#231f20" flood-opacity=".75"/>
      <feComposite in2="blur-13" operator="in"/>
      <feComposite in="SourceGraphic"/>
    </filter>
    <filter id="drop-shadow-14" x="97.2" y="56.4" width="78.48" height="88.8" filterUnits="userSpaceOnUse">
      <feOffset dx="7" dy="7"/>
      <feGaussianBlur result="blur-14" stdDeviation="5"/>
      <feFlood flood-color="#231f20" flood-opacity=".75"/>
      <feComposite in2="blur-14" operator="in"/>
      <feComposite in="SourceGraphic"/>
    </filter>
  </defs>
  <g class="cls-16">
    <g id="Layer_1" data-name="Layer 1">
      <g>
        <g>
          <path class="cls-9" d="M31.35,107.84c-4.08,20.99-1.13,41.72,7.21,59.75,25.73-40.6,68.1-104.48,100.3-138.4-50.43-5.91-97.66,27.99-107.51,78.65Z"/>
          <path class="cls-13" d="M139.29,146.53c8.69-26.75-55.82,1.79-95.08,31.56,13.88,22.43,36.71,39.22,64.64,44.65,11.94,2.32,23.79,2.36,35.1.44-5.64-22.62-11.49-55.61-4.66-76.65Z"/>
          <path class="cls-5" d="M223.75,145.24c8.09-41.64-11.47-82.24-45.88-102.83,1.2,47.63-13.26,133.62-21.41,177.78,33.39-10.34,60.15-38.24,67.29-74.95Z"/>
          <path class="cls-3" d="M177.86,42.41c-.64-25.29-5.7-39.77-18.47-31.39-6.06,3.98-13.02,10.26-20.53,18.17,2.46.29,4.92.67,7.39,1.15,11.49,2.23,22.12,6.39,31.61,12.07Z"/>
          <path class="cls-1" d="M15.63,204.62s-17.67,32,3.05-1.42c4.69-7.57,14.03-16.39,25.52-25.11-2.09-3.38-3.98-6.88-5.65-10.5-13.88,21.9-22.92,37.03-22.92,37.03Z"/>
          <path class="cls-11" d="M151.12,248.01s2.2-10.81,5.34-27.82c-4.08,1.26-8.25,2.26-12.5,2.98,3.63,14.57,7.17,24.84,7.17,24.84Z"/>
          <path class="cls-4" d="M106.99,118.24s34.6-15.66,33.69,1.51c-.91,17.16,13.3-47.01,12.26-54.14-1.04-7.14-45.95,52.64-45.95,52.64Z"/>
        </g>
        <g class="cls-15">
          <path class="cls-7" d="M31.35,107.84c-4.08,20.99-1.13,41.72,7.21,59.75,25.73-40.6,68.1-104.48,100.3-138.4-50.43-5.91-97.66,27.99-107.51,78.65Z"/>
          <path class="cls-14" d="M139.29,146.53c8.69-26.75-55.82,1.79-95.08,31.56,13.88,22.43,36.71,39.22,64.64,44.65,11.94,2.32,23.79,2.36,35.1.44-5.64-22.62-11.49-55.61-4.66-76.65Z"/>
          <path class="cls-10" d="M223.75,145.24c8.09-41.64-11.47-82.24-45.88-102.83,1.2,47.63-13.26,133.62-21.41,177.78,33.39-10.34,60.15-38.24,67.29-74.95Z"/>
          <path class="cls-2" d="M177.86,42.41c-.64-25.29-5.7-39.77-18.47-31.39-6.06,3.98-13.02,10.26-20.53,18.17,2.46.29,4.92.67,7.39,1.15,11.49,2.23,22.12,6.39,31.61,12.07Z"/>
          <path class="cls-6" d="M15.63,204.62s-17.67,32,3.05-1.42c4.69-7.57,14.03-16.39,25.52-25.11-2.09-3.38-3.98-6.88-5.65-10.5-13.88,21.9-22.92,37.03-22.92,37.03Z"/>
          <path class="cls-12" d="M151.12,248.01s2.2-10.81,5.34-27.82c-4.08,1.26-8.25,2.26-12.5,2.98,3.63,14.57,7.17,24.84,7.17,24.84Z"/>
          <path class="cls-8" d="M106.99,118.24s34.6-15.66,33.69,1.51c-.91,17.16,13.3-47.01,12.26-54.14-1.04-7.14-45.95,52.64-45.95,52.64Z"/>
        </g>
      </g>
    </g>
  </g>
</svg>